<svg xmlns="http://www.w3.org/2000/svg" style="display: none;">

  <!-- ===== LOGO ===== -->
  <symbol id="icon-logo" viewBox="0 0 40 36">
    <path fill="#02bc6b" fill-rule="evenodd"
      d="M3.133 34.114C1.41 34.114 0 32.718 0 31.012V20.168h7.886v-.012h4.74c1.222-.03 2.256-1.085 2.256-2.326 0-1.272-1.065-2.326-2.35-2.326H6.266v.002H0v-3.104C0 10.696 1.41 9.3 3.133 9.3h9.4c2.38 0 4.417.838 6.077 2.512 1.692 1.644 2.538 3.66 2.538 6.018 0 2.326-.814 4.342-2.475 5.986-1.66 1.644-3.666 2.513-6.015 2.544H6.266v4.652c0 1.706-1.41 3.102-3.133 3.102"
      clip-rule="evenodd" />
    <path fill="#02897a" fill-rule="evenodd"
      d="M25.098 5.7c3.46 3.329 5.205 7.474 5.205 12.187 0 4.633-1.671 8.774-5.08 12.113l-4.838-4.507c2.12-2.076 3.16-4.576 3.16-7.606 0-3.054-1.072-5.55-3.242-7.637z"
      clip-rule="evenodd" />
    <path fill="#035b81" fill-rule="evenodd"
      d="M32.505 0C37.491 4.928 40 11.038 40 18.051c0 6.904-2.408 13.01-7.312 17.949l-4.67-4.517c3.654-3.679 5.443-8.14 5.443-13.432 0-5.344-1.85-9.802-5.582-13.49z"
      clip-rule="evenodd" />
    <path fill="#028e37" fill-rule="evenodd"
      d="M0 26.386h6.266v4.627c0 1.706-1.41 3.101-3.133 3.101S0 32.72 0 31.013z"
      clip-rule="evenodd" />
  </symbol>

  <!-- ===== FEATURE 1: CURSOR ===== -->
<symbol id="icon-mouse" viewBox="0 0 21 32">
<path fill="#fff" style="fill: var(--color1, #fff)" d="M19.042 17.529l-17.21-17.21c-0.202-0.218-0.471-0.319-0.756-0.319-0.134 0-0.286 0.034-0.403 0.084-0.403 0.168-0.672 0.555-0.672 0.992v25.277c0 0.437 0.269 0.824 0.672 0.992 0.118 0.050 0.269 0.084 0.403 0.084 0.286 0 0.555-0.118 0.756-0.319l5.244-5.244 3.21 7.597c0.235 0.538 0.857 0.807 1.412 0.571l2.975-1.261c0.538-0.235 0.807-0.857 0.571-1.412l-3.378-8h6.42c0.437 0 0.824-0.269 0.992-0.672 0.168-0.387 0.084-0.857-0.235-1.16z"></path>
</symbol>

  <!-- ===== FEATURE 2: DESIGN ===== -->
<symbol id="icon-wave" viewBox="0 0 41 32">
<path fill="#fff" style="fill: var(--color1, #fff)" d="M21.673 11.204l2.674 1.245 3.98-1.184v-2.775c0-4.714-3.98-8.49-8.735-8.49-4.735 0-8.735 3.755-8.735 8.429v12.653c0 1.163-0.939 2.082-2.082 2.082s-2.082-0.918-2.082-2.082v-5.347h-6.694c0 5.367 0 5.429 0 5.429 0 4.837 3.918 8.755 8.755 8.755 4.796 0 8.755-3.857 8.755-8.633v-12.49c0-1.143 0.939-2.082 2.082-2.082s2.082 0.939 2.082 2.082v2.408zM32.49 15.735v5.612c0 1.143-0.939 2.061-2.082 2.061s-2.082-0.918-2.082-2.061v-5.51l-3.98 1.184-2.674-1.245v5.469c0 4.796 3.939 8.674 8.755 8.674 4.837 0 8.755-3.918 8.755-8.755 0 0 0-0.061 0-5.429h-6.694z"></path>
</symbol>

  <!-- ===== FEATURE 3: HEART ===== -->
<symbol id="icon-heart" viewBox="0 0 37 32">
<path fill="#fff" style="fill: var(--color1, #fff)" d="M18.286 31.347c0.327 0 0.653-0.122 0.898-0.367l12.714-12.245c0.184-0.184 4.673-4.286 4.673-9.184 0-5.98-3.653-9.551-9.755-9.551-3.571 0-6.918 2.816-8.53 4.408-1.612-1.592-4.959-4.408-8.531-4.408-6.102 0-9.755 3.571-9.755 9.551 0 4.898 4.49 9 4.653 9.143l12.735 12.286c0.245 0.245 0.571 0.367 0.898 0.367z"></path>
</symbol>

  <!-- ===== FEATURE 4: TIMER ===== -->
 <symbol id="icon-timer" viewBox="0 0 28 32">
<path fill="#fff" style="fill: var(--color1, #fff)" d="M25.143 2.286h1.714c0.321 0 0.571-0.25 0.571-0.571v-1.143c0-0.321-0.25-0.571-0.571-0.571h-26.286c-0.321 0-0.571 0.25-0.571 0.571v1.143c0 0.321 0.25 0.571 0.571 0.571h1.714c0 6.607 3.161 11.393 6.661 13.714-3.5 2.321-6.661 7.107-6.661 13.714h-1.714c-0.321 0-0.571 0.25-0.571 0.571v1.143c0 0.321 0.25 0.571 0.571 0.571h26.286c0.321 0 0.571-0.25 0.571-0.571v-1.143c0-0.321-0.25-0.571-0.571-0.571h-1.714c0-6.607-3.161-11.393-6.661-13.714 3.5-2.321 6.661-7.107 6.661-13.714zM22.857 2.286c0 2.607-0.589 4.911-1.518 6.857h-15.25c-0.929-1.946-1.518-4.25-1.518-6.857h18.286zM21.839 24h-16.25c1.321-3.446 3.696-5.893 6.071-6.857h4.107c2.375 0.964 4.75 3.411 6.071 6.857z"></path>
</symbol>

</svg>
